<?xml version="1.0" encoding="iso-8859-1"?>
<!-- Uploaded to: SVG Repo, www.svgrepo.com, Generator: SVG Repo Mixer Tools -->
<svg version="1.1" id="Layer_1" xmlns="http://www.w3.org/2000/svg" xmlns:xlink="http://www.w3.org/1999/xlink" 
	 viewBox="0 0 512 512" xml:space="preserve">
<rect x="9.1" y="21.269" style="fill:#F2F2F2;" width="246.902" height="469.515"/>
<rect x="256.002" y="21.269" style="fill:#E6E6E6;" width="246.902" height="469.515"/>
<path d="M502.9,12.143H9.1c-5.027,0-9.1,4.074-9.1,9.1v469.515c0,5.025,4.073,9.1,9.1,9.1H502.9c5.027,0,9.1-4.074,9.1-9.1V21.243
	C512,16.217,507.927,12.143,502.9,12.143z M18.199,30.342h228.702v451.315H18.199V30.342z M493.801,481.659H265.1V30.342h228.701
	V481.659z"/>
<path d="M136.28,124.449h50.912c5.027,0,9.1-4.074,9.1-9.1c0-5.025-4.073-9.1-9.1-9.1H136.28c-5.027,0-9.1,4.074-9.1,9.1
	C127.181,120.375,131.255,124.449,136.28,124.449z"/>
<path d="M77.908,124.449h24.642c5.027,0,9.1-4.074,9.1-9.1c0-5.025-4.073-9.1-9.1-9.1H77.908c-5.027,0-9.1,4.074-9.1,9.1
	C68.809,120.375,72.882,124.449,77.908,124.449z"/>
<path d="M205.406,202.379H59.695c-5.027,0-9.1,4.074-9.1,9.1c0,5.025,4.073,9.1,9.1,9.1h145.711c5.027,0,9.1-4.074,9.1-9.1
	C214.505,206.453,210.431,202.379,205.406,202.379z"/>
<path d="M205.406,346.572H90.026c-5.027,0-9.1,4.074-9.1,9.1c0,5.025,4.073,9.1,9.1,9.1h115.379c5.027,0,9.1-4.074,9.1-9.1
	C214.505,350.647,210.431,346.572,205.406,346.572z"/>
<path d="M205.406,298.508H59.695c-5.027,0-9.1,4.074-9.1,9.1c0,5.025,4.073,9.1,9.1,9.1h145.711c5.027,0,9.1-4.074,9.1-9.1
	C214.505,302.583,210.431,298.508,205.406,298.508z"/>
<path d="M205.406,250.443h-16.053c-5.027,0-9.1,4.074-9.1,9.1c0,5.025,4.073,9.1,9.1,9.1h16.053c5.027,0,9.1-4.074,9.1-9.1
	C214.505,254.517,210.431,250.443,205.406,250.443z"/>
<path d="M155.621,268.642c5.027,0,9.1-4.074,9.1-9.1c0-5.025-4.073-9.1-9.1-9.1H90.026c-5.027,0-9.1,4.074-9.1,9.1
	c0,5.025,4.073,9.1,9.1,9.1H155.621z"/>
<path d="M205.406,394.638H59.695c-5.027,0-9.1,4.074-9.1,9.1s4.073,9.1,9.1,9.1h145.711c5.027,0,9.1-4.074,9.1-9.1
	S210.431,394.638,205.406,394.638z"/>
<path d="M456.542,202.379h-82.809c-5.027,0-9.1,4.074-9.1,9.1c0,5.025,4.073,9.1,9.1,9.1h82.809c5.027,0,9.1-4.074,9.1-9.1
	C465.642,206.453,461.569,202.379,456.542,202.379z"/>
<path d="M310.83,220.578h32.572c5.027,0,9.1-4.074,9.1-9.1c0-5.025-4.073-9.1-9.1-9.1H310.83c-5.027,0-9.1,4.074-9.1,9.1
	C301.73,216.504,305.805,220.578,310.83,220.578z"/>
<path d="M456.542,346.572h-115.38c-5.027,0-9.1,4.074-9.1,9.1c0,5.025,4.073,9.1,9.1,9.1h115.38c5.027,0,9.1-4.074,9.1-9.1
	C465.642,350.647,461.569,346.572,456.542,346.572z"/>
<path d="M310.83,316.708h145.712c5.027,0,9.1-4.074,9.1-9.1c0-5.025-4.073-9.1-9.1-9.1H310.83c-5.027,0-9.1,4.074-9.1,9.1
	C301.73,312.633,305.805,316.708,310.83,316.708z"/>
<path d="M456.542,250.443h-115.38c-5.027,0-9.1,4.074-9.1,9.1c0,5.025,4.073,9.1,9.1,9.1h115.38c5.027,0,9.1-4.074,9.1-9.1
	C465.642,254.517,461.569,250.443,456.542,250.443z"/>
<path d="M456.542,394.638h-80.17c-5.027,0-9.1,4.074-9.1,9.1s4.073,9.1,9.1,9.1h80.17c5.027,0,9.1-4.074,9.1-9.1
	S461.569,394.638,456.542,394.638z"/>
<path d="M310.83,412.837h35.211c5.027,0,9.1-4.074,9.1-9.1s-4.073-9.1-9.1-9.1H310.83c-5.027,0-9.1,4.074-9.1,9.1
	S305.805,412.837,310.83,412.837z"/>
<path d="M456.542,154.315h-115.38c-5.027,0-9.1,4.074-9.1,9.1s4.073,9.1,9.1,9.1h115.38c5.027,0,9.1-4.074,9.1-9.1
	S461.569,154.315,456.542,154.315z"/>
<path d="M310.83,124.449h145.712c5.027,0,9.1-4.074,9.1-9.1c0-5.025-4.073-9.1-9.1-9.1H310.83c-5.027,0-9.1,4.074-9.1,9.1
	C301.73,120.375,305.805,124.449,310.83,124.449z"/>
</svg>